<mxfile host="app.diagrams.net" modified="2024-07-22T18:26:23.681Z" agent="Mozilla/5.0 (Windows NT 10.0; Win64; x64) AppleWebKit/537.36 (KHTML, like Gecko) Chrome/126.0.0.0 Safari/537.36 Edg/126.0.0.0" etag="Ui2vMXTjp4YnVbwPQUdv" version="24.6.4" type="device">
  <diagram name="Страница — 1" id="Q3L2KdEi7-OS3BRCHRlS">
    <mxGraphModel dx="1114" dy="771" grid="1" gridSize="10" guides="1" tooltips="1" connect="1" arrows="1" fold="1" page="1" pageScale="1" pageWidth="1169" pageHeight="827" math="0" shadow="0">
      <root>
        <mxCell id="0" />
        <mxCell id="1" parent="0" />
        <mxCell id="14QdZiFJ-jHHLGyNdT1h-2" value="1 окно" style="swimlane;whiteSpace=wrap;html=1;" vertex="1" parent="1">
          <mxGeometry x="90" y="80" width="200" height="200" as="geometry" />
        </mxCell>
        <mxCell id="14QdZiFJ-jHHLGyNdT1h-5" value="" style="rounded=0;whiteSpace=wrap;html=1;" vertex="1" parent="14QdZiFJ-jHHLGyNdT1h-2">
          <mxGeometry x="40" y="100" width="120" height="20" as="geometry" />
        </mxCell>
        <mxCell id="14QdZiFJ-jHHLGyNdT1h-3" value="Vertical Container" style="swimlane;whiteSpace=wrap;html=1;" vertex="1" parent="1">
          <mxGeometry x="360" y="80" width="200" height="200" as="geometry" />
        </mxCell>
        <mxCell id="14QdZiFJ-jHHLGyNdT1h-4" value="Vertical Container" style="swimlane;whiteSpace=wrap;html=1;" vertex="1" parent="1">
          <mxGeometry x="630" y="80" width="200" height="200" as="geometry" />
        </mxCell>
      </root>
    </mxGraphModel>
  </diagram>
</mxfile>
